<svg xmlns="http://www.w3.org/2000/svg" width="2190.615" height="998.483" viewBox="0 0 2190.615 998.483"><path d="M3988.4,942.683c131.1,189.513,1065.735-86.958,1584.939-192.794s491.879-230.55,491.879-230.55V270.314h0S5864.93,527.719,5590.9,622.007s-547.4,163.027-824.348,207.811-522.666,203.237-778.154,0S3988.4,942.683,3988.4,942.683Z" transform="translate(-3874.854 -8.944)" fill="#fff"/><path d="M4293.748,16c15.375-31.06,1155.271,42.642,1370.573,177.413,133.053,50.863,402.356,440.568,486.587,595.379,5.51,86.511,0,214.114,0,214.114S6037.263,323.735,5356.8,254.248,3962.742,69.487,3962.742,69.487V16" transform="translate(-3962.742 -8.944)" fill="rgba(255,155,33,0.15)"/></svg>